<svg width="197" height="30" viewBox="0 0 197 30" fill="none" xmlns="http://www.w3.org/2000/svg">
<path d="M15.0547 7.63732e-05C12.0779 7.86819e-05 9.16801 0.879341 6.69269 2.52673C4.21738 4.17412 2.28777 6.51569 1.14777 9.25549C0.00776752 11.9953 -0.29146 15.0103 0.287907 17.9195C0.867274 20.8287 2.29923 23.5015 4.40278 25.6C6.50634 27.6985 9.18707 29.1286 12.1061 29.7095C15.0252 30.2904 18.0516 29.996 20.8028 28.8636C23.554 27.7311 25.9066 25.8114 27.563 23.3472C29.2195 20.8829 30.1056 17.9847 30.1093 15.0188C30.1181 13.0456 29.7349 11.0902 28.9817 9.26533C28.2284 7.44044 27.1202 5.78214 25.7207 4.38603C24.3212 2.98991 22.6583 1.88359 20.8277 1.13083C18.9971 0.378072 17.035 -0.00622997 15.0547 7.63732e-05ZM15.0547 26.9051C12.6896 26.9051 10.3777 26.206 8.41149 24.8964C6.4453 23.5868 4.91319 21.7255 4.00906 19.548C3.10493 17.3705 2.8694 14.9748 3.3323 12.6639C3.79519 10.353 4.9357 8.23082 6.60949 6.56598C8.28327 4.90113 10.4151 3.76841 12.7352 3.31117C15.0553 2.85392 17.4594 3.09269 19.6433 3.99728C21.8272 4.90186 23.6927 6.43159 25.0037 8.39288C26.3147 10.3542 27.0123 12.6589 27.0082 15.0153C26.9947 18.1681 25.7303 21.1875 23.491 23.415C21.2516 25.6424 18.2189 26.897 15.0547 26.9051Z" fill="#E61771"/>
<path d="M11.1697 8.76631L21.9416 13.9404C22.1442 14.0349 22.3155 14.185 22.4355 14.373C22.5556 14.561 22.6193 14.7793 22.6193 15.0021C22.6193 15.225 22.5556 15.4432 22.4355 15.6312C22.3155 15.8193 22.1442 15.9693 21.9416 16.0638L11.1697 21.2362C10.9911 21.3177 10.7948 21.3532 10.5988 21.3394C10.4028 21.3257 10.2134 21.2631 10.048 21.1574C9.88264 21.0517 9.74654 20.9063 9.65222 20.7346C9.55789 20.5629 9.50837 20.3703 9.50819 20.1745V9.82802C9.50837 9.63226 9.55789 9.43968 9.65222 9.26795C9.74654 9.09622 9.88264 8.95084 10.048 8.84517C10.2134 8.73948 10.4028 8.67688 10.5988 8.66311C10.7948 8.64933 10.9911 8.68482 11.1697 8.76631Z" fill="#E61771"/>
<path d="M49.0745 18.3761C46.7749 12.8362 44.4274 7.68873 42.0322 2.93375H35.567V27.0671H40.1298V9.09809C41.496 11.9724 43.7353 17.2236 46.8477 24.8518H50.5465C53.2395 18.5156 55.5397 13.253 57.5155 9.09809V27.0671H62.15V2.93375H56.011C53.3141 8.26609 51.0019 13.4135 49.0745 18.3761Z" fill="#E61771"/>
<path d="M72.9731 9.13383C67.3379 9.13383 64.4588 11.4172 64.4588 18.1685C64.4588 21.5969 65.2136 23.8394 66.7573 25.2584C68.301 26.6774 70.4936 27.3699 73.3317 27.3699C75.6665 27.3594 77.9891 27.0332 80.2358 26.4001L79.5169 23.0074C77.6718 23.4779 75.7759 23.7219 73.8714 23.7339C72.1825 23.7339 70.9684 23.4226 70.2426 22.8339C69.5237 22.2111 69.1651 21.1801 69.1292 19.3799H81.0555C81.1989 15.1263 80.6968 12.6643 79.259 11.1415C77.8587 9.61874 76.0264 9.13383 72.9731 9.13383ZM69.16 16.091C69.4059 13.3687 70.3809 12.518 73.1473 12.518C74.4759 12.518 75.3673 12.7596 75.842 13.2803C76.3082 13.7652 76.607 14.7469 76.6668 16.0825L69.16 16.091Z" fill="#E61771"/>
<path d="M92.4916 12.8736C93.9387 12.8743 95.374 13.1324 96.73 13.6359L97.7358 9.96583C96.199 9.41116 94.3205 9.13383 92.1672 9.13383C89.1856 9.13383 86.9571 9.82631 85.4134 11.2113C83.8765 12.5622 83.1149 14.7418 83.1149 18.1685C83.1149 21.5952 83.8697 23.8394 85.4134 25.2584C86.9571 26.6774 89.1856 27.3699 92.1672 27.3699C94.3222 27.3699 96.1904 27.0586 97.7358 26.4699L96.73 22.7998C95.3825 23.3408 93.9444 23.6225 92.4916 23.6302C90.7669 23.6302 89.5459 23.249 88.7911 22.5225C88.0739 21.7603 87.7136 20.4536 87.7136 18.2383C87.8929 13.3568 89.078 12.8736 92.4916 12.8736Z" fill="#E61771"/>
<path d="M113.103 9.75655C112.205 9.3414 111.02 9.13383 109.474 9.13383C107.726 9.1436 106.005 9.55834 104.445 10.3453V2.06942H99.9916V27.0671H104.447V14.5699C104.447 13.6001 105.984 13.0114 107.966 13.0114C110.553 13.0114 111.631 13.9115 111.631 17.4777V27.0671H116.086V17.1306C116.084 12.8379 114.935 10.5494 113.103 9.75655Z" fill="#E61771"/>
<path d="M127.903 23.6659C125.927 23.6659 125.137 22.662 125.137 20.5846V13.1833H131.207V9.44009H125.135V4.69986L120.682 6.46596V9.44349H117.628V13.1867H120.682V20.9691C120.682 23.4617 121.148 25.158 122.118 26.0581C123.088 26.9241 124.633 27.3733 126.788 27.3733C128.497 27.3854 130.196 27.1164 131.817 26.5771L131.026 23.1844C130.015 23.496 128.962 23.6582 127.903 23.6659Z" fill="#E61771"/>
<path d="M149.341 26.167C146.664 26.9837 143.877 27.3893 141.078 27.3699C138.175 27.3699 136.126 26.9548 135.007 26.1585C133.894 25.3282 133.354 23.9466 133.354 21.665C133.354 19.3459 133.929 17.8214 135.115 17.0592C136.3 16.2629 138.132 15.8818 140.54 15.8818C142.06 15.9002 143.575 16.0626 145.065 16.3667C145.065 14.8082 144.778 13.9847 144.211 13.4946C143.637 12.9757 142.415 12.7324 140.511 12.7324C138.631 12.7067 136.76 12.9995 134.978 13.5984L134.151 10.0662C136.534 9.45177 138.984 9.13795 141.445 9.13212C144.247 9.13212 146.259 9.65107 147.48 10.6634C148.737 11.6622 149.341 13.4266 149.341 15.9941V26.167ZM145.072 19.2761C143.876 19.052 142.66 18.9477 141.443 18.9648C138.748 18.9648 138.028 19.3051 138.028 21.4931C138.028 22.6705 138.243 23.2507 138.675 23.5978C139.105 23.9092 140.004 24.0827 141.407 24.0827C142.641 24.1028 143.873 23.9661 145.072 23.6761V19.2761Z" fill="#E61771"/>
<path d="M159.228 24.5404C159.228 26.8255 158.568 27.2406 156.448 27.2406C154.433 27.2406 153.772 26.8255 153.772 24.5404C153.772 22.4289 154.433 22.1159 156.448 22.1159C158.569 22.1193 159.228 22.4289 159.228 24.5404Z" fill="#E61771"/>
<path d="M174.659 27.0671C170.663 21.2822 168.229 18.1685 167.256 17.7534V27.0671H162.946V2.06771H167.256V17.7534C168.229 16.9571 170.627 14.1174 174.102 9.44349H179.21C175.805 14.0136 173.371 16.7155 172.434 17.4403C173.337 17.995 175.979 21.2141 179.732 27.0671H174.659Z" fill="#E61771"/>
<path d="M197 9.44349V10.3095C194.498 14.3266 190.224 20.3855 187.895 23.329H196.756V27.0722H181.153V26.2027C184.524 21.9491 188.667 16.023 190.397 13.1833H181.744V9.44009L197 9.44349Z" fill="#E61771"/>
</svg>
